<svg t="1698045154789" class="icon" viewBox="0 0 1024 1024" version="1.1" xmlns="http://www.w3.org/2000/svg" p-id="1424" width="200" height="200"><path d="M511.274667 671.829333c-8.533333 0-17.152-2.858667-24.32-7.125333l-383.018667-261.12A45.226667 45.226667 0 0 1 85.333333 366.421333c0-15.701333 7.125333-27.136 20.010667-35.669333l383.061333-238.336c14.293333-8.533333 31.445333-8.533333 45.738667 0l383.061333 239.744c12.885333 7.125333 20.053333 21.418667 20.053334 35.669333 0 14.293333-7.168 28.544-18.602667 35.669334l-383.061333 261.12c-7.168 4.266667-15.744 7.168-24.32 7.168z m-304.426667-302.506666l305.877333 208.341333 305.877334-208.341333-307.328-191.232-304.426667 191.232z" fill="#172B4D" p-id="1425"></path><path d="M511.274667 938.666667c-8.533333 0-17.152-2.858667-24.32-7.125334l-383.018667-262.570666c-11.434667-7.125333-18.602667-21.418667-18.602667-35.669334 0-14.293333 7.125333-27.136 20.010667-35.669333l383.061333-239.744c14.293333-8.533333 31.445333-8.533333 45.738667 0l383.061333 239.744c12.885333 7.125333 20.053333 21.376 20.053334 35.669333 0 14.250667-7.168 28.544-18.602667 35.669334l-383.061333 261.12a38.869333 38.869333 0 0 1-24.32 8.576z m-304.426667-302.506667l305.877333 208.341333 305.877334-208.341333-307.328-191.232-304.426667 191.232z" fill="#172B4D" p-id="1426"></path><path d="M938.666667 367.872h-85.76v266.837333H938.666667V367.872zM171.093333 367.872H85.333333v266.837333h85.76V367.872zM554.154667 140.970667h-85.76V407.893333h85.76V140.970667zM554.154667 623.317333h-85.76v266.837334h85.76v-266.837334z" fill="#172B4D" p-id="1427"></path></svg>